<mxfile host="65bd71144e">
    <diagram name="cognitive-search-for-ai-enrichment" id="Page-1">
        <mxGraphModel dx="933" dy="647" grid="1" gridSize="10" guides="1" tooltips="1" connect="1" arrows="1" fold="1" page="1" pageScale="1" pageWidth="850" pageHeight="1100" math="0" shadow="0">
            <root>
                <mxCell id="0"/>
                <mxCell id="1" parent="0"/>
                <mxCell id="246" value="" style="rounded=0;whiteSpace=wrap;html=1;" parent="1" vertex="1">
                    <mxGeometry x="60" y="70" width="770" height="510" as="geometry"/>
                </mxCell>
                <mxCell id="272" value="" style="edgeStyle=none;html=1;" edge="1" parent="1" source="254" target="269">
                    <mxGeometry relative="1" as="geometry"/>
                </mxCell>
                <mxCell id="254" value="&lt;font color=&quot;#121212&quot;&gt;private link&lt;br&gt;subnet&lt;/font&gt;" style="whiteSpace=wrap;html=1;aspect=fixed;fillColor=#CCCCCC;verticalAlign=top;" vertex="1" parent="1">
                    <mxGeometry x="270" y="207" width="120" height="120" as="geometry"/>
                </mxCell>
                <mxCell id="qxArfmMU_z32NaRqhNJx-267" value="" style="edgeStyle=orthogonalEdgeStyle;rounded=0;orthogonalLoop=1;jettySize=auto;html=1;" parent="1" source="qxArfmMU_z32NaRqhNJx-265" target="qxArfmMU_z32NaRqhNJx-260" edge="1">
                    <mxGeometry relative="1" as="geometry"/>
                </mxCell>
                <mxCell id="qxArfmMU_z32NaRqhNJx-265" value="Log Store" style="rounded=1;whiteSpace=wrap;html=1;verticalAlign=top;arcSize=7;" parent="1" vertex="1">
                    <mxGeometry x="559" y="350" width="100" height="190" as="geometry"/>
                </mxCell>
                <UserObject label="" tags="Media Common_Icons Web_Site_Map_Shapes Container Connector" id="245">
                    <mxCell parent="1" vertex="1" visible="0">
                        <mxGeometry as="geometry"/>
                    </mxCell>
                </UserObject>
                <mxCell id="qxArfmMU_z32NaRqhNJx-264" style="edgeStyle=orthogonalEdgeStyle;rounded=0;orthogonalLoop=1;jettySize=auto;html=1;entryX=0;entryY=0.5;entryDx=0;entryDy=0;" parent="1" source="qxArfmMU_z32NaRqhNJx-254" target="qxArfmMU_z32NaRqhNJx-257" edge="1">
                    <mxGeometry relative="1" as="geometry"/>
                </mxCell>
                <mxCell id="qxArfmMU_z32NaRqhNJx-254" value="" style="image;sketch=0;aspect=fixed;html=1;points=[];align=center;fontSize=12;image=img/lib/mscae/Event_Hubs.svg;" parent="1" vertex="1">
                    <mxGeometry x="306" y="420" width="48" height="50" as="geometry"/>
                </mxCell>
                <mxCell id="qxArfmMU_z32NaRqhNJx-266" value="" style="edgeStyle=orthogonalEdgeStyle;rounded=0;orthogonalLoop=1;jettySize=auto;html=1;entryX=0;entryY=0.5;entryDx=0;entryDy=0;" parent="1" source="qxArfmMU_z32NaRqhNJx-257" target="qxArfmMU_z32NaRqhNJx-265" edge="1">
                    <mxGeometry relative="1" as="geometry"/>
                </mxCell>
                <mxCell id="273" value="" style="edgeStyle=none;html=1;" edge="1" parent="1" source="qxArfmMU_z32NaRqhNJx-257" target="qxArfmMU_z32NaRqhNJx-273">
                    <mxGeometry relative="1" as="geometry"/>
                </mxCell>
                <mxCell id="qxArfmMU_z32NaRqhNJx-257" value="Log Parser" style="shape=process;whiteSpace=wrap;html=1;backgroundOutline=1;" parent="1" vertex="1">
                    <mxGeometry x="404.46" y="415" width="120" height="60" as="geometry"/>
                </mxCell>
                <mxCell id="qxArfmMU_z32NaRqhNJx-258" value="" style="image;sketch=0;aspect=fixed;html=1;points=[];align=center;fontSize=12;image=img/lib/mscae/Application_Insights.svg;" parent="1" vertex="1">
                    <mxGeometry x="593" y="390" width="32" height="50" as="geometry"/>
                </mxCell>
                <mxCell id="257" value="&lt;font color=&quot;#0d0d0d&quot;&gt;APIM Subnet&lt;/font&gt;" style="whiteSpace=wrap;html=1;aspect=fixed;fillColor=#CCCCCC;verticalAlign=top;strokeColor=#000000;" vertex="1" parent="1">
                    <mxGeometry x="112.5" y="207" width="117.5" height="117.5" as="geometry"/>
                </mxCell>
                <mxCell id="qxArfmMU_z32NaRqhNJx-259" value="" style="image;aspect=fixed;html=1;points=[];align=center;fontSize=12;image=img/lib/azure2/databases/Azure_Cosmos_DB.svg;" parent="1" vertex="1">
                    <mxGeometry x="578.09" y="460" width="64" height="64" as="geometry"/>
                </mxCell>
                <mxCell id="qxArfmMU_z32NaRqhNJx-260" value="" style="verticalLabelPosition=bottom;sketch=0;aspect=fixed;html=1;verticalAlign=top;strokeColor=none;align=center;outlineConnect=0;shape=mxgraph.citrix.reporting;" parent="1" vertex="1">
                    <mxGeometry x="725" y="410.5" width="61.5" height="69" as="geometry"/>
                </mxCell>
                <mxCell id="263" value="" style="edgeStyle=none;html=1;" edge="1" parent="1" source="qxArfmMU_z32NaRqhNJx-262" target="247">
                    <mxGeometry relative="1" as="geometry"/>
                </mxCell>
                <mxCell id="qxArfmMU_z32NaRqhNJx-262" value="" style="image;aspect=fixed;html=1;points=[];align=center;fontSize=12;image=img/lib/azure2/security/Key_Vaults.svg;" parent="1" vertex="1">
                    <mxGeometry x="450" y="120" width="50" height="50" as="geometry"/>
                </mxCell>
                <mxCell id="qxArfmMU_z32NaRqhNJx-272" value="" style="html=1;verticalLabelPosition=bottom;align=center;labelBackgroundColor=#ffffff;verticalAlign=top;strokeWidth=2;strokeColor=#0080F0;shadow=0;dashed=0;shape=mxgraph.ios7.icons.locked;" parent="1" vertex="1">
                    <mxGeometry x="380.46" y="535" width="24" height="30" as="geometry"/>
                </mxCell>
                <mxCell id="qxArfmMU_z32NaRqhNJx-273" value="Content Safety" style="rounded=0;whiteSpace=wrap;html=1;" parent="1" vertex="1">
                    <mxGeometry x="404.46" y="505" width="120" height="35" as="geometry"/>
                </mxCell>
                <mxCell id="266" style="edgeStyle=none;html=1;entryX=1;entryY=0.5;entryDx=0;entryDy=0;" edge="1" parent="1" source="247" target="254">
                    <mxGeometry relative="1" as="geometry">
                        <Array as="points">
                            <mxPoint x="475" y="267"/>
                        </Array>
                    </mxGeometry>
                </mxCell>
                <mxCell id="247" value="" style="aspect=fixed;html=1;points=[];align=center;image;fontSize=12;image=img/lib/azure2/networking/Private_Link.svg;verticalAlign=top;" vertex="1" parent="1">
                    <mxGeometry x="459.55" y="216.66" width="30.91" height="28.34" as="geometry"/>
                </mxCell>
                <mxCell id="267" value="" style="edgeStyle=none;html=1;" edge="1" parent="1" source="248" target="265">
                    <mxGeometry relative="1" as="geometry"/>
                </mxCell>
                <mxCell id="248" value="" style="image;sketch=0;aspect=fixed;html=1;points=[];align=center;fontSize=12;image=img/lib/mscae/Application_Insights.svg;" vertex="1" parent="1">
                    <mxGeometry x="577" y="120" width="32" height="50" as="geometry"/>
                </mxCell>
                <mxCell id="qxArfmMU_z32NaRqhNJx-245" value="" style="image;aspect=fixed;html=1;points=[];align=center;fontSize=12;image=img/lib/azure2/app_services/API_Management_Services.svg;" parent="1" vertex="1">
                    <mxGeometry x="137" y="245" width="65" height="60" as="geometry"/>
                </mxCell>
                <mxCell id="258" value="" style="aspect=fixed;html=1;points=[];align=center;image;fontSize=12;image=img/lib/azure2/networking/DNS_Zones.svg;fillColor=#666666;" vertex="1" parent="1">
                    <mxGeometry x="170" y="75" width="50" height="50" as="geometry"/>
                </mxCell>
                <mxCell id="259" value="" style="aspect=fixed;html=1;points=[];align=center;image;fontSize=12;image=img/lib/azure2/networking/Virtual_Networks.svg;fillColor=#666666;" vertex="1" parent="1">
                    <mxGeometry x="70" y="80" width="67" height="40" as="geometry"/>
                </mxCell>
                <mxCell id="261" value="" style="endArrow=classic;startArrow=classic;html=1;entryX=0;entryY=0.5;entryDx=0;entryDy=0;" edge="1" parent="1" source="257" target="254">
                    <mxGeometry width="50" height="50" relative="1" as="geometry">
                        <mxPoint x="280" y="350" as="sourcePoint"/>
                        <mxPoint x="330" y="300" as="targetPoint"/>
                    </mxGeometry>
                </mxCell>
                <mxCell id="268" style="edgeStyle=none;html=1;entryX=0.99;entryY=0.635;entryDx=0;entryDy=0;entryPerimeter=0;" edge="1" parent="1" source="265" target="254">
                    <mxGeometry relative="1" as="geometry">
                        <Array as="points">
                            <mxPoint x="594" y="283"/>
                        </Array>
                    </mxGeometry>
                </mxCell>
                <mxCell id="265" value="" style="aspect=fixed;html=1;points=[];align=center;image;fontSize=12;image=img/lib/azure2/networking/Private_Link.svg;verticalAlign=top;" vertex="1" parent="1">
                    <mxGeometry x="578.09" y="215.66" width="30.91" height="28.34" as="geometry"/>
                </mxCell>
                <mxCell id="270" value="" style="edgeStyle=none;html=1;" edge="1" parent="1" source="269" target="qxArfmMU_z32NaRqhNJx-254">
                    <mxGeometry relative="1" as="geometry"/>
                </mxCell>
                <mxCell id="269" value="" style="aspect=fixed;html=1;points=[];align=center;image;fontSize=12;image=img/lib/azure2/networking/Private_Link.svg;verticalAlign=top;" vertex="1" parent="1">
                    <mxGeometry x="314.55" y="360" width="30.91" height="28.34" as="geometry"/>
                </mxCell>
                <mxCell id="274" value="" style="sketch=0;outlineConnect=0;fontColor=#232F3E;gradientColor=none;fillColor=#D45B07;strokeColor=none;dashed=0;verticalLabelPosition=bottom;verticalAlign=top;align=center;html=1;fontSize=12;fontStyle=0;aspect=fixed;pointerEvents=1;shape=mxgraph.aws4.elastic_ip_address;" vertex="1" parent="1">
                    <mxGeometry x="30" y="257.34" width="80" height="33.33" as="geometry"/>
                </mxCell>
                <mxCell id="275" value="" style="aspect=fixed;html=1;points=[];align=center;image;fontSize=12;image=img/lib/azure2/networking/DNS_Zones.svg;fillColor=#666666;" vertex="1" parent="1">
                    <mxGeometry x="220" y="75" width="50" height="50" as="geometry"/>
                </mxCell>
                <mxCell id="276" value="" style="aspect=fixed;html=1;points=[];align=center;image;fontSize=12;image=img/lib/azure2/networking/DNS_Zones.svg;fillColor=#666666;" vertex="1" parent="1">
                    <mxGeometry x="270" y="75" width="50" height="50" as="geometry"/>
                </mxCell>
                <mxCell id="279" style="edgeStyle=none;html=1;entryX=0.893;entryY=0.724;entryDx=0;entryDy=0;entryPerimeter=0;" edge="1" parent="1" source="277" target="265">
                    <mxGeometry relative="1" as="geometry">
                        <Array as="points">
                            <mxPoint x="669" y="236"/>
                        </Array>
                    </mxGeometry>
                </mxCell>
                <mxCell id="277" value="" style="aspect=fixed;html=1;points=[];align=center;image;fontSize=12;image=img/lib/azure2/management_governance/Log_Analytics_Workspaces.svg;fillColor=#666666;" vertex="1" parent="1">
                    <mxGeometry x="642.09" y="106" width="54" height="54" as="geometry"/>
                </mxCell>
                <mxCell id="280" value="" style="aspect=fixed;html=1;points=[];align=center;image;fontSize=12;image=img/lib/azure2/networking/Private_Link.svg;verticalAlign=top;" vertex="1" parent="1">
                    <mxGeometry x="302.28000000000003" y="254.15999999999997" width="55.45" height="50.84" as="geometry"/>
                </mxCell>
                <mxCell id="283" value="" style="edgeStyle=none;html=1;fontColor=#121212;" edge="1" parent="1" source="281" target="282">
                    <mxGeometry relative="1" as="geometry"/>
                </mxCell>
                <mxCell id="281" value="&lt;font color=&quot;#0d0d0d&quot;&gt;Azure Open AI&lt;/font&gt;" style="whiteSpace=wrap;html=1;aspect=fixed;fillColor=#CCCCCC;verticalAlign=top;strokeColor=#000000;" vertex="1" parent="1">
                    <mxGeometry x="725" y="113.5" width="56.5" height="56.5" as="geometry"/>
                </mxCell>
                <mxCell id="284" style="edgeStyle=none;html=1;entryX=1;entryY=0.75;entryDx=0;entryDy=0;fontColor=#121212;" edge="1" parent="1" source="282" target="254">
                    <mxGeometry relative="1" as="geometry">
                        <Array as="points">
                            <mxPoint x="756" y="297"/>
                        </Array>
                    </mxGeometry>
                </mxCell>
                <mxCell id="282" value="" style="aspect=fixed;html=1;points=[];align=center;image;fontSize=12;image=img/lib/azure2/networking/Private_Link.svg;verticalAlign=top;" vertex="1" parent="1">
                    <mxGeometry x="740.3" y="216.66" width="30.91" height="28.34" as="geometry"/>
                </mxCell>
            </root>
        </mxGraphModel>
    </diagram>
</mxfile>